<svg xmlns="http://www.w3.org/2000/svg" width="430" height="347" viewBox="0 0 430 347" fill="none"><path d="M123.315 8.03428C146.124 1.13269 170.532 -0.971454 195.066 0.922275C254.866 5.50931 315.465 33.7469 355.36 74.3148C375.98 95.2721 432.245 152.505 429.931 235.913C428.752 278.585 412.508 316.039 389.657 346.339H39.3175C31.1113 334.766 23.9572 322.057 18.0236 308.169C-24.6485 208.433 7.67117 42.8789 123.315 8.03428Z" fill="#EBF9FF"></path><path d="M214.001 331.181C214.001 331.181 234.874 337.703 237.399 340.27C239.924 342.837 238.661 346.33 238.661 346.33H193.548C193.548 346.33 192.496 329.203 194.18 330.886L214.001 331.181Z" fill="#2B353C"></path><path d="M211.688 322.551C211.688 322.551 214.465 331.725 214.087 332.609C213.708 333.492 210.467 335.218 204.365 333.871C198.263 332.482 194.139 330.883 194.139 330.883L193.424 322.845L211.688 322.551Z" fill="#E8968B"></path><path d="M218.8 338.672L222.462 335.263L222.209 334.969L218.548 338.377L218.8 338.672Z" fill="white"></path><path d="M214.42 337.412L218.082 333.961L217.829 333.709L214.168 337.118L214.42 337.412Z" fill="white"></path><path d="M202.049 346.335C202.049 346.251 202.344 344.147 200.408 340.906C198.43 337.666 193.464 337.203 193.296 337.203L193.254 337.582C193.296 337.582 198.22 338.045 200.113 341.117C202.007 344.231 201.713 346.293 201.713 346.293L202.049 346.335Z" fill="white"></path><path d="M193.249 343.438L193.245 343.816L239.031 344.263L239.035 343.884L193.249 343.438Z" fill="white"></path><path d="M182.991 331.181C182.991 331.181 203.864 337.703 206.389 340.27C208.914 342.837 207.651 346.33 207.651 346.33H162.539C162.539 346.33 161.487 329.203 163.17 330.886L182.991 331.181Z" fill="#2B353C"></path><path d="M180.718 322.551C180.718 322.551 183.496 331.725 183.117 332.609C182.738 333.492 179.498 335.218 173.396 333.871C167.294 332.482 163.17 330.883 163.17 330.883L162.454 322.845L180.718 322.551Z" fill="#E8968B"></path><path d="M187.788 338.672L191.449 335.263L191.196 334.969L187.535 338.377L187.788 338.672Z" fill="white"></path><path d="M183.412 337.412L187.073 333.961L186.82 333.709L183.159 337.118L183.412 337.412Z" fill="white"></path><path d="M171.039 346.335C171.039 346.251 171.334 344.147 169.398 340.906C167.42 337.666 162.455 337.203 162.286 337.203L162.244 337.582C162.286 337.582 167.21 338.045 169.104 341.117C170.997 344.231 170.703 346.293 170.703 346.293L171.039 346.335Z" fill="white"></path><path d="M162.254 343.451L162.25 343.83L208.036 344.277L208.04 343.898L162.254 343.451Z" fill="white"></path><path d="M85.7755 252.952C106.833 252.952 123.903 247.808 123.903 241.463C123.903 235.118 106.833 229.975 85.7755 229.975C64.7185 229.975 47.6484 235.118 47.6484 241.463C47.6484 247.808 64.7185 252.952 85.7755 252.952Z" fill="#2B353C"></path><path d="M193.3 210.278C194.773 211.373 195.909 212.888 197.003 214.739C206.261 230.184 208.955 247.9 213.71 264.902C217.75 279.252 222 293.518 226.377 307.742C226.672 308.752 230.333 323.187 231.132 323.187H184.589C184.589 323.187 159.255 243.524 158.119 241.967C156.94 240.41 119.571 239.147 119.571 239.147C119.571 239.147 107.493 240.452 101.643 233.466C95.7939 226.48 98.4451 208.595 98.4451 208.595C112.332 208.595 126.22 208.595 140.107 208.595C156.141 208.595 172.427 207.669 188.418 208.595C190.396 208.679 191.953 209.268 193.3 210.278Z" fill="#1B7898"></path><path d="M113.804 83.3145C113.804 90.8474 108.964 96.9494 101.474 96.9494C93.9829 96.9494 87.8809 90.8474 87.8809 83.3145C87.8809 75.7817 93.9829 69.6797 101.474 69.6797C108.964 69.6797 113.804 75.7817 113.804 83.3145Z" fill="#2B353C"></path><path d="M98.9866 95.8926C98.9025 96.2292 98.9866 102.542 98.9866 102.542H106.94L106.519 95.8926H98.9866Z" fill="#E8968B"></path><path d="M100.504 97.8694C100.714 97.9115 103.618 101.573 106.816 101.068L106.48 95.9336L100.504 97.8694Z" fill="#2B353C"></path><path d="M120.113 103.684C106.31 99.7705 91.2445 101.664 78.1567 107.388C69.4876 111.175 59.3456 118.329 55.7686 127.545C51.5603 138.487 53.0753 151.364 55.6003 162.474C56.9469 168.366 58.7986 174.131 61.1973 179.686C63.8906 185.83 67.678 192.605 72.4755 196.814C82.9541 205.988 128.488 200.475 128.488 200.475L125.626 184.483L147.257 188.018L144.563 166.135C144.563 166.135 157.82 182.926 170.655 184.736L176.42 160.875C176.42 160.875 158.619 138.613 151.297 128.134C143.974 117.656 135.305 108.019 120.113 103.684Z" fill="#FFC32D"></path><path d="M125.545 185.031L125.672 183.936C100.632 181.201 90.1538 179.013 89.228 178.213C87.7551 176.867 83.9255 153.3 81.0639 131.838L79.9697 131.964C80.9797 139.455 86.0297 176.909 88.5125 179.055C90.9954 181.201 122.011 184.652 125.545 185.031Z" fill="white"></path><path d="M125.207 184.231C125.207 184.231 136.064 183.263 141.493 184.231C146.922 185.199 151.635 189.912 150.751 191.68C149.868 193.447 142.419 190.796 138.042 190.964C133.666 191.133 126.68 192.269 126.68 192.269L125.207 184.231Z" fill="#C19678"></path><path d="M137.789 128.932L117.337 202.03H218.672L235.421 128.932H137.789Z" fill="#BDCBD3"></path><path d="M178.355 168.993C185.002 168.993 190.391 166.487 190.391 163.396C190.391 160.305 185.002 157.799 178.355 157.799C171.708 157.799 166.319 160.305 166.319 163.396C166.319 166.487 171.708 168.993 178.355 168.993Z" fill="white"></path><path d="M94.1942 86.045C94.1942 86.045 90.3646 84.6562 89.8175 87.8966C89.2705 91.137 93.3104 92.6941 93.3104 92.6941C95.4987 97.3232 102.821 101.153 108.755 96.8182C114.689 92.4836 112.837 83.1833 112.837 83.1833L111.701 80.0692C111.701 80.0692 107.787 80.0692 106.062 80.0692L104.168 77.418C104.168 77.418 104.841 80.6163 103.663 80.8267C102.484 81.0371 95.6671 81.2475 94.9517 82.0892C94.2362 82.8887 94.1942 86.045 94.1942 86.045Z" fill="#E8968B"></path><path d="M162.409 210.07C162.914 210.448 163.335 210.869 163.63 211.332C169.774 220.548 174.655 231.027 176.844 241.968C180.337 259.643 200.115 323.188 200.115 323.188H153.572C153.572 323.188 128.238 243.526 127.102 241.968C125.965 240.411 87.7963 241.968 87.7963 241.968C87.7963 241.968 76.4339 240.411 70.6265 233.426C64.8191 226.44 67.4282 208.555 67.4282 208.555C67.4282 208.555 157.906 208.555 158.243 208.555C159.59 208.555 161.231 209.186 162.409 210.07Z" fill="#1B7898"></path><path d="M274.055 346.667C274.224 346.667 274.35 346.541 274.392 346.415L312.477 213.222L351.698 346.415C351.74 346.625 351.951 346.709 352.161 346.667C352.371 346.625 352.456 346.415 352.413 346.204L312.813 211.792C312.771 211.623 312.603 211.539 312.477 211.539C312.309 211.539 312.182 211.665 312.14 211.792L273.719 346.204C273.676 346.415 273.761 346.625 273.971 346.667C273.971 346.667 274.013 346.667 274.055 346.667Z" fill="#2B353C"></path><path d="M229.699 346.667C229.867 346.667 229.993 346.541 230.035 346.415L268.078 213.222L307.3 346.415C307.342 346.625 307.552 346.709 307.763 346.667C307.973 346.625 308.057 346.415 308.015 346.204L268.415 211.792C268.373 211.623 268.205 211.539 268.078 211.539C267.91 211.539 267.784 211.665 267.742 211.792L229.32 346.204C229.278 346.415 229.362 346.625 229.573 346.667C229.657 346.667 229.657 346.667 229.699 346.667Z" fill="#2B353C"></path><path d="M55.5024 211.889L334.891 211.889V196.36L55.5024 196.36V211.889Z" fill="#2B353C"></path><path d="M199.781 323.311L200.496 323.101C199.486 319.734 198.476 316.409 197.466 313.043C193.847 300.965 190.06 288.508 186.735 276.136C185.977 273.359 185.178 270.539 184.378 267.846C183.116 263.469 181.811 258.966 180.717 254.421L180.633 254.127C178.908 247.057 177.14 239.734 174.699 232.749C171.964 224.963 167.924 217.767 163.968 211.16L163.337 211.539C167.293 218.146 171.291 225.3 173.984 233.001C176.425 239.945 178.192 247.267 179.918 254.337L180.002 254.632C181.096 259.177 182.4 263.68 183.663 268.056C184.463 270.75 185.262 273.569 186.02 276.347C189.386 288.719 193.132 301.175 196.751 313.253C197.761 316.578 198.771 319.944 199.781 323.311Z" fill="white"></path><path d="M207.859 346.33C208.701 343.469 207.522 340.439 205.039 339.092C202.641 337.83 193.635 334.505 193.256 334.379L193.13 334.716C193.214 334.758 202.472 338.166 204.871 339.429C207.186 340.649 208.28 343.511 207.48 346.204L207.859 346.33Z" fill="white"></path><path d="M118.138 346.283H122.304L122.304 244.737H118.138L118.138 346.283Z" fill="#2B353C"></path><path d="M53.3533 346.283H57.5195L57.5195 244.737H53.3533L53.3533 346.283Z" fill="#2B353C"></path><path d="M84.4751 346.667C84.6435 346.667 84.7697 346.541 84.8118 346.415L122.855 213.222L162.076 346.415C162.118 346.625 162.328 346.709 162.539 346.667C162.749 346.625 162.833 346.415 162.791 346.204L123.233 211.792C123.191 211.623 123.023 211.539 122.897 211.539C122.728 211.539 122.602 211.665 122.56 211.792L84.1385 346.204C84.0964 346.415 84.1805 346.625 84.3909 346.667C84.3909 346.667 84.433 346.667 84.4751 346.667Z" fill="#2B353C"></path><path d="M40.1138 346.667C40.2821 346.667 40.4084 346.541 40.4505 346.415L78.4934 213.222L117.715 346.415C117.757 346.625 117.967 346.709 118.177 346.667C118.388 346.625 118.472 346.415 118.43 346.204L78.83 211.792C78.7879 211.623 78.6196 211.539 78.4934 211.539C78.325 211.539 78.1988 211.665 78.1567 211.792L39.7771 346.204C39.735 346.415 39.8192 346.625 40.0296 346.667C40.0717 346.667 40.0717 346.667 40.1138 346.667Z" fill="#2B353C"></path><path d="M373.469 275.249C380.179 251.834 368.811 228.036 348.078 222.094C327.344 216.152 305.096 230.316 298.386 253.731C291.675 277.146 303.043 300.944 323.777 306.886C344.511 312.828 366.758 298.664 373.469 275.249Z" fill="#2B353C"></path><path d="M306.418 298.691L295.182 346.287H302.504L312.141 302.605L306.418 298.691Z" fill="#2B353C"></path><path d="M362.684 287.586C362.516 287.838 390.585 346.292 390.585 346.292H383.262L358.896 292.552L362.684 287.586Z" fill="#2B353C"></path><path d="M335.922 306.181L345.054 346.286H352.166L341.645 303.824L335.922 306.181Z" fill="#2B353C"></path><path d="M368.996 273.954C375.707 250.539 364.339 226.741 343.605 220.799C322.871 214.857 300.623 229.021 293.913 252.436C287.203 275.851 298.571 299.649 319.304 305.591C340.038 311.533 362.286 297.369 368.996 273.954Z" fill="white"></path><path d="M363.008 272.231C368.642 252.57 359.083 232.582 341.656 227.588C324.229 222.593 305.534 234.483 299.899 254.144C294.264 273.806 303.824 293.793 321.251 298.787C338.678 303.782 357.373 291.892 363.008 272.231Z" fill="#DD5247"></path><path d="M355.434 270.442C359.718 255.495 352.45 240.3 339.201 236.503C325.952 232.706 311.739 241.745 307.455 256.692C303.172 271.639 310.44 286.834 323.689 290.631C336.938 294.428 351.151 285.389 355.434 270.442Z" fill="white"></path><path d="M345.246 267.139C347.711 258.537 343.533 249.794 335.915 247.61C328.296 245.427 320.121 250.63 317.656 259.232C315.191 267.834 319.369 276.577 326.987 278.76C334.606 280.944 342.781 275.741 345.246 267.139Z" fill="#DD5247"></path><path d="M329.166 265.242L329.268 263.436L224.817 257.543L224.715 259.349L329.166 265.242Z" fill="#2B353C"></path><path d="M334.322 264.647L328.347 260.396L327.884 268.182L334.322 264.647Z" fill="#2B353C"></path><path d="M233.7 258.041L232.101 256.063L221.117 255.432L224.82 257.536L233.7 258.041Z" fill="#2B353C"></path><path d="M233.619 259.89L231.81 261.657L220.784 261.026L224.74 259.385L233.619 259.89Z" fill="#2B353C"></path><path d="M333.981 259.389C333.981 259.389 330.194 264.691 332.34 267.931C334.486 271.172 339.831 265.364 339.831 265.364L333.981 259.389Z" fill="#DD5247"></path><path d="M332.845 260.146C331.54 262.587 331.246 265.533 332.087 268.184C332.256 268.689 333.055 268.479 332.887 267.974C332.087 265.533 332.34 262.797 333.56 260.567C333.813 260.104 333.097 259.683 332.845 260.146Z" fill="#2B353C"></path><path d="M282.512 165.507C282.512 165.507 276.578 132.472 298.882 116.186C298.882 116.186 304.605 146.864 290.549 167.274C290.549 167.274 284.658 170.557 282.512 165.507Z" fill="#57A194"></path><path d="M272.873 167.775C272.873 167.775 255.114 129.648 276.913 102.799C276.913 102.799 293.704 138.106 283.226 167.312C283.183 167.312 277.081 173.161 272.873 167.775Z" fill="#78B7AE"></path><path d="M274.901 167.061C274.901 166.598 273.554 121.317 276.121 109.197L276.416 109.239C273.849 121.317 275.195 166.556 275.195 167.019L274.901 167.061Z" fill="white"></path><path d="M285.965 166.891C285.965 166.807 286.806 159.401 288.532 150.311C290.131 141.894 292.824 130.237 296.654 122.578L296.906 122.704C289.626 137.349 286.302 166.639 286.302 166.933L285.965 166.891Z" fill="white"></path><path d="M272.96 125.739C271.403 124.013 269.004 121.362 268.752 121.194L268.878 120.941C269.131 121.068 272.203 124.476 273.171 125.528L272.96 125.739Z" fill="white"></path><path d="M274.688 141.677L267.197 135.027L267.408 134.817L274.688 141.256L282.726 133.639L282.936 133.849L274.688 141.677Z" fill="white"></path><path d="M284.848 147.374L276.148 154.814L276.34 155.038L285.039 147.598L284.848 147.374Z" fill="white"></path><path d="M291.73 136.597L288.742 131.042L288.995 130.916L291.856 136.176L297.58 133.104L297.706 133.357L291.73 136.597Z" fill="white"></path><path d="M296.982 145.905L290.076 149.217L290.204 149.482L297.11 146.171L296.982 145.905Z" fill="white"></path><path d="M302.673 179.81C302.673 173.75 300.106 168.322 295.982 164.492H267.576C263.452 168.322 260.885 173.75 260.885 179.81C260.885 186.544 264.083 192.519 269.007 196.349H294.551C299.517 192.519 302.673 186.544 302.673 179.81Z" fill="#90E4FB"></path><path d="M312.564 28.1367H144.4V48.5048H312.564V28.1367Z" fill="white"></path><path d="M336.759 28.1367H312.562V48.5048H336.759V28.1367Z" fill="#DC5247"></path><path d="M331.249 44.2179C329.187 42.1979 327.967 40.9775 327.209 40.3042C327.84 39.4204 328.177 38.3684 328.177 37.2321C328.177 34.3284 325.778 31.9297 322.875 31.9297C319.971 31.9297 317.572 34.3284 317.572 37.2321C317.572 40.1358 319.971 42.5346 322.875 42.5346C324.095 42.5346 325.189 42.1137 326.073 41.4404C326.957 42.2821 328.85 44.1337 330.113 45.3541C330.281 45.5225 330.492 45.6066 330.702 45.6066C330.913 45.6066 331.123 45.5225 331.291 45.3541C331.586 45.0595 331.586 44.5125 331.249 44.2179ZM319.214 37.2321C319.214 35.2121 320.855 33.5709 322.875 33.5709C324.895 33.5709 326.536 35.2121 326.536 37.2321C326.536 39.2521 324.895 40.8933 322.875 40.8933C320.855 40.8933 319.214 39.2521 319.214 37.2321Z" fill="white"></path><path d="M195.025 42.4802H156.603C154.92 42.4802 153.531 41.0915 153.531 39.4082V38.8611C153.531 37.1778 154.92 35.7891 156.603 35.7891H195.025C196.708 35.7891 198.097 37.1778 198.097 38.8611V39.4082C198.097 41.1336 196.708 42.4802 195.025 42.4802Z" fill="#90E4FB"></path><path d="M223.012 42.4802H206.852C205.169 42.4802 203.78 41.0915 203.78 39.4082V38.8611C203.78 37.1778 205.169 35.7891 206.852 35.7891H223.012C224.695 35.7891 226.084 37.1778 226.084 38.8611V39.4082C226.084 41.1336 224.695 42.4802 223.012 42.4802Z" fill="#90E4FB"></path><path d="M233.07 62.455L229.529 65.9961L237.831 74.2982L241.373 70.7572L233.07 62.455Z" fill="#2B353C"></path><path d="M217.92 24.9785C204.958 24.9785 194.479 35.4992 194.479 48.4187C194.479 61.3802 205 71.8588 217.92 71.8588C230.881 71.8588 241.36 61.3381 241.36 48.4187C241.402 35.4992 230.881 24.9785 217.92 24.9785ZM217.92 65.9251C208.241 65.9251 200.413 58.0977 200.413 48.4187C200.413 38.7396 208.241 30.9122 217.92 30.9122C227.599 30.9122 235.426 38.7396 235.426 48.4187C235.426 58.0977 227.599 65.9251 217.92 65.9251Z" fill="#DC5247"></path><path d="M259.831 92.1391L259.2 92.7704C257.222 94.7483 254.023 94.7483 252.046 92.7704L235.886 76.6105C233.908 74.6327 233.908 71.4344 235.886 69.4565L236.517 68.8252C238.495 66.8473 241.693 66.8473 243.671 68.8252L259.831 84.985C261.767 86.9629 261.767 90.1612 259.831 92.1391Z" fill="#DC5247"></path><path d="M302.589 177.91C300.779 180.266 298.381 182.455 295.519 183.338C293.415 183.97 291.1 183.928 288.912 183.843C286.555 183.717 284.199 183.549 281.884 183.086C279.654 182.623 277.718 181.697 275.782 180.561C273.846 179.425 271.995 178.246 269.89 177.489C267.071 176.479 264.083 176.184 261.137 176.563C261.011 177.279 260.927 178.036 260.927 178.794C263.662 178.373 266.524 178.625 269.133 179.551C271.195 180.266 273.047 181.487 274.94 182.581C277.002 183.801 279.149 184.727 281.505 185.232C283.862 185.737 286.303 185.906 288.701 186.032C291.058 186.158 293.541 186.158 295.856 185.527C298.507 184.811 300.779 183.17 302.673 181.192C302.715 180.729 302.715 180.266 302.715 179.804C302.673 179.172 302.673 178.541 302.589 177.91Z" fill="white"></path><path d="M263.832 169.114C265.684 169.324 267.535 169.871 269.261 170.629C272.543 172.06 275.615 173.953 279.024 175.089C282.391 176.226 286.052 176.731 289.587 176.478C291.354 176.352 293.122 176.099 294.847 175.552C296.53 175.047 298.087 174.248 299.602 173.322C300.192 172.985 300.781 172.607 301.328 172.228C301.075 171.555 300.781 170.881 300.444 170.208C300.36 170.25 300.318 170.292 300.234 170.334C298.761 171.26 297.288 172.228 295.647 172.901C294.09 173.575 292.406 173.953 290.765 174.164C287.272 174.542 283.737 174.206 280.371 173.196C276.92 172.144 273.848 170.25 270.565 168.819C268.882 168.062 267.072 167.43 265.221 167.094C264.674 167.767 264.253 168.44 263.832 169.114Z" fill="white"></path><path d="M111.867 79.6072C116.097 79.6072 119.526 76.9883 119.526 73.7577C119.526 70.5271 116.097 67.9082 111.867 67.9082C107.637 67.9082 104.208 70.5271 104.208 73.7577C104.208 76.9883 107.637 79.6072 111.867 79.6072Z" fill="#2B353C"></path><path d="M104.209 73.2969C106.487 73.2969 108.333 71.6765 108.333 69.6777C108.333 67.6789 106.487 66.0586 104.209 66.0586C101.931 66.0586 100.085 67.6789 100.085 69.6777C100.085 71.6765 101.931 73.2969 104.209 73.2969Z" fill="#2B353C"></path><path d="M98.4011 73.3378C100.098 73.3378 101.473 72.132 101.473 70.6445C101.473 69.157 100.098 67.9512 98.4011 67.9512C96.7045 67.9512 95.3291 69.157 95.3291 70.6445C95.3291 72.132 96.7045 73.3378 98.4011 73.3378Z" fill="#2B353C"></path></svg>