<svg xmlns="http://www.w3.org/2000/svg" width="2em" height="2em" viewBox="0 0 24 24"><path fill="#3d6ef5" d="M10.63 11.11a1.16 1.16 0 0 1-.81.77A4 4 0 0 1 8.2 12c-.11 0-.15 0-.15-.16V9.4c0-.09 0-.17.12-.17q.712-.01 1.42.07a1.3 1.3 0 0 1 1.04 1.81"/><path fill="#3d6ef5" d="M17 2H7a5 5 0 0 0-5 5v10a5 5 0 0 0 5 5h10a5 5 0 0 0 5-5V7a5 5 0 0 0-5-5m-5.14 10.57a3 3 0 0 1-2 1c-.5.06-1 0-1.5.08H8v2.57c0 .2 0 .23-.21.23H6.37c-.15 0-.21-.05-.21-.21V7.79c0-.13 0-.2.18-.2H9.1A4 4 0 0 1 11 8a2.71 2.71 0 0 1 1.55 2.43a2.88 2.88 0 0 1-.69 2.14m5.94-1.29c0 .14-.08.17-.2.17a3.6 3.6 0 0 0-1.45.26l-.13.06a.58.58 0 0 0-.4.62v3.82c0 .23 0 .24-.23.24h-1.45c-.21 0-.23 0-.23-.23v-5.19c0-.38 0-.76-.05-1.14c0-.13 0-.19.17-.18h1.33a.23.23 0 0 1 .27.22c0 .2.07.41.1.58c.3-.21.59-.44.91-.63a2.35 2.35 0 0 1 1.19-.31c.12 0 .18 0 .18.17z"/></svg>